<svg width="76" height="59" viewBox="0 0 76 59" fill="none" xmlns="http://www.w3.org/2000/svg">
<path d="M31.6139 2.76605C29.0806 5.29939 28.8139 7.16605 30.5472 13.0327C30.8139 14.0994 29.0806 15.4327 26.1472 16.4994C16.8139 19.8327 8.28056 29.2994 6.8139 38.0994C6.28056 41.1661 5.34723 42.6327 3.34723 42.8994C1.88056 43.1661 0.413897 44.0994 0.013897 44.8994C-0.386103 46.2327 7.74723 46.6327 37.6139 46.6327C70.6806 46.6327 75.7472 46.3661 75.7472 44.6327C75.7472 43.5661 74.6806 42.6327 73.3472 42.6327C71.6139 42.6327 70.5472 40.8994 69.2139 36.3661C67.2139 28.7661 57.0806 18.0994 50.1472 16.2327C45.6139 15.0327 45.4806 14.6327 46.9472 9.83272C47.4806 7.96605 46.8139 5.83272 44.9472 3.56605C41.6139 -0.833948 35.6139 -1.23395 31.6139 2.76605ZM42.2806 6.49939C44.0139 9.69939 41.2139 13.8327 37.7472 13.1661C34.0139 12.3661 32.1472 8.63272 34.2806 6.09939C36.6806 3.16605 40.6806 3.43272 42.2806 6.49939ZM54.6806 23.4327C60.5472 27.5661 66.4139 35.9661 66.4139 40.6327C66.4139 43.1661 65.4806 43.2994 38.4139 43.2994C13.0806 43.2994 10.4139 43.0327 10.4139 41.0327C10.4139 33.9661 17.2139 25.1661 25.7472 21.0327C34.1472 17.1661 47.2139 18.0994 54.6806 23.4327Z" fill="white"/>
<path d="M0.933333 55.9333C0.4 56.3333 0 57.2667 0 57.9333C0 58.4667 17.0667 59 38 59C70.9333 59 76 58.7333 76 57C76 55.2667 70.9333 55 38.9333 55C18.5333 55 1.33333 55.4 0.933333 55.9333Z" fill="white"/>
</svg>
