<svg width="190" height="58" viewBox="0 0 190 58" fill="none" xmlns="http://www.w3.org/2000/svg">
<path d="M57.3333 49.3333C54 55.6 62.1333 60.4 65.8667 54.4C66.9333 52.8 66.9333 51.4667 65.8667 49.7333C63.7333 46.4 59.0667 46.1333 57.3333 49.3333Z" fill="white"/>
<path d="M0 0.666662C0 0.933328 5.06667 8.66666 11.3333 17.7333L22.6667 34.1333V45.0667V56.1333H26.6667H30.6667V45.3333V34.6667L42 18.1333C48.2667 9.06666 53.3333 1.33333 53.3333 0.933328C53.3333 0.533328 51.3333 0.133328 48.8 0.133328C44.5333 0.133328 43.8667 0.933328 35.8667 13.3333C31.2 20.6667 27.0667 26.6667 26.6667 26.6667C26.2667 26.6667 22.4 20.8 18 13.7333C10.4 1.46666 9.73333 0.799995 4.93333 0.399995C2.26667 0.133328 0 0.266662 0 0.666662Z" fill="white"/>
<path d="M78.6667 28.1333V56.1333H98H117.333V52.8V49.4667H102H86.6667V40.1333V30.8H98.6667C110.533 30.8 110.667 30.8 110.667 27.4667C110.667 24.1333 110.533 24.1333 98.6667 24.1333H86.6667V15.7333V7.33333L101.067 7.46666H115.333L115.733 3.73333L116.133 0.133328H97.4667H78.6667V28.1333Z" fill="white"/>
<path d="M141.733 2.4C142.133 3.73333 146.8 16.1333 152.267 30.1333C160.133 50.2667 162.667 55.6 164.8 55.8667C167.067 56.1333 168.667 53.0667 176.4 32.9333C181.333 20.1333 186.267 7.46667 187.467 4.8L189.467 -1.89721e-06L184.667 0.399998C179.2 0.799998 180.267 -1.2 170.4 27.4667C168.133 34 165.867 39.8667 165.467 40.4C165.067 40.9333 161.333 32.2667 157.333 21.0667L150 0.799998L145.467 0.399998C141.6 -1.89721e-06 141.067 0.266665 141.733 2.4Z" fill="white"/>
<path d="M126.933 48.4C123.6 51.7333 126.133 57.4667 130.933 57.4667C132.133 57.4667 133.867 56.2667 134.667 54.8C137.6 49.4667 131.2 44.1333 126.933 48.4Z" fill="white"/>
</svg>
