<svg width="374" height="85" viewBox="0 0 374 85" fill="none" xmlns="http://www.w3.org/2000/svg">
<path d="M355.09 73.9334C355.091 57.982 355.091 42.5216 355.091 26.0206C348.639 32.0786 342.849 37.4845 337.097 42.9307C334.556 45.3366 331.935 47.6864 329.637 50.3125C327.174 53.128 325.264 52.966 322.672 50.3641C315.851 43.5185 308.827 36.8739 301.826 30.2104C300.678 29.1179 299.772 27.5726 297.207 27.2768C297.207 29.814 297.208 32.2397 297.207 34.6655C297.203 48.998 297.082 63.332 297.265 77.6621C297.32 81.9466 295.997 83.5894 291.541 83.4496C277.441 83.0072 279.754 85.2492 279.666 71.5441C279.528 50.0461 279.778 28.5447 279.512 7.04918C279.448 1.88684 281.21 0.775076 286.095 0.52923C293.469 0.158125 299.054 2.03685 304 7.82444C309.829 14.645 316.694 20.5706 322.916 27.0694C325.308 29.5672 326.971 29.675 329.416 27.1474C336.715 19.603 344.211 12.2497 351.63 4.82145C355.136 1.31202 366.757 -0.937425 371.177 0.98715C373.109 1.82833 373.167 3.50419 373.168 5.17322C373.179 29.8384 373.156 54.5036 373.178 79.1687C373.18 82.0524 372.038 83.5392 369.013 83.3711C367.352 83.2788 365.68 83.3946 364.014 83.3648C355.389 83.2108 355.018 85.07 355.09 73.9334Z" fill="white"/>
<path d="M189 46.3417C182.003 46.3414 175.488 46.642 169.016 46.2409C164.196 45.9421 162.836 47.8287 163.237 52.2756C163.535 55.5804 163.53 58.9534 163.244 62.2601C162.87 66.5975 164.439 68.1046 168.883 68.0296C182.871 67.7937 196.867 67.9289 210.859 67.9595C217.084 67.9732 217.253 68.1842 217.28 74.4676C217.287 75.9667 217.177 77.4714 217.271 78.964C217.471 82.1347 216.126 83.412 212.888 83.3999C192.066 83.3217 171.244 83.3221 150.421 83.407C147.064 83.4207 145.635 82.2828 145.647 78.7845C145.726 54.2976 145.725 29.8101 145.63 5.32326C145.617 1.81162 147.037 0.675467 150.393 0.6883C170.715 0.765997 191.038 0.77344 211.36 0.672629C215.03 0.654425 216.35 2.06376 216.317 5.69341C216.203 18.2549 217.04 16.2224 206.105 16.3153C193.446 16.4227 180.784 16.4433 168.126 16.2773C164.418 16.2287 163.156 17.5034 163.236 21.1984C163.502 33.5281 161.97 31.5166 173.493 31.6355C183.82 31.7421 194.153 31.8279 204.475 31.5792C208.78 31.4755 210.773 32.7938 210.216 37.2396C210.072 38.3876 210.078 39.583 210.216 40.7326C210.741 45.1284 208.847 46.6809 204.487 46.411C199.509 46.1029 194.497 46.3408 189 46.3417Z" fill="white"/>
<path d="M25.5942 44.3436C17.3143 30.0005 9.21011 15.9784 0.465027 0.847446C7.58006 0.847446 13.1768 0.718882 18.7627 0.90858C21.1078 0.988215 21.7381 3.35807 22.6694 5.06444C29.1266 16.8962 35.5294 28.7576 41.9723 40.5972C42.8225 42.1595 43.3313 44.011 45.6392 45.1056C47.03 42.712 48.488 40.3579 49.7968 37.9235C55.7074 26.93 61.6849 15.9698 67.3893 4.86972C68.991 1.75288 70.9768 0.390586 74.4241 0.677184C78.9817 1.0561 83.6289 0.157355 88.0468 1.22184C88.752 3.71451 87.2031 5.06046 86.3385 6.57548C77.6784 21.7513 69.2666 37.0817 60.1354 51.9702C55.5793 59.399 53.5429 66.883 54.0931 75.5228C54.5909 83.3418 54.1843 83.4099 46.295 83.3638C35.3613 83.3 35.9446 84.3823 36.8737 73.8221C37.9205 61.9243 30.6537 53.9084 25.5942 44.3436Z" fill="white"/>
<path d="M111.992 63.6273C115.345 63.4451 118.036 64.0869 120.438 65.7741C123.564 67.9692 124.909 71.1107 124.712 74.7929C124.383 80.9161 118.956 84.5524 110.774 84.3426C104.126 84.172 98.9575 79.6878 98.9124 74.0524C98.8664 68.302 103.202 64.2505 110.055 63.6515C110.549 63.6083 111.049 63.6332 111.992 63.6273Z" fill="white"/>
<path d="M233.321 71.6532C237.036 63.3505 248.687 60.7496 255.23 66.4138C260.363 70.8576 259.949 78.5062 254.228 82.1204C249.205 85.2937 243.762 85.4211 238.594 82.7562C234.456 80.6217 232.313 76.9547 233.321 71.6532Z" fill="white"/>
</svg>
